<mxfile host="Electron" modified="2024-01-19T18:50:04.028Z" agent="Mozilla/5.0 (Macintosh; Intel Mac OS X 10_15_7) AppleWebKit/537.36 (KHTML, like Gecko) draw.io/22.1.21 Chrome/120.0.6099.109 Electron/28.1.0 Safari/537.36" etag="LtGnhysasHLWsWNSsw0A" version="22.1.21" type="device">
  <diagram name="Page-1" id="SRoH_Cm1zgihC4Y3aIys">
    <mxGraphModel dx="1956" dy="734" grid="1" gridSize="10" guides="1" tooltips="1" connect="1" arrows="1" fold="1" page="1" pageScale="1" pageWidth="827" pageHeight="1169" math="0" shadow="0">
      <root>
        <mxCell id="0" />
        <mxCell id="1" parent="0" />
        <mxCell id="Zu4S4lrj_1vBMu7qutv7-1" value="Relay" style="whiteSpace=wrap;html=1;align=center;" parent="1" vertex="1">
          <mxGeometry x="-370" y="540" width="100" height="40" as="geometry" />
        </mxCell>
        <mxCell id="r_z-gsxkTrxiHgK6J5hU-3" style="edgeStyle=orthogonalEdgeStyle;rounded=0;orthogonalLoop=1;jettySize=auto;html=1;exitX=1;exitY=0.25;exitDx=0;exitDy=0;entryX=0.5;entryY=1;entryDx=0;entryDy=0;endArrow=none;endFill=0;" edge="1" parent="1" source="Zu4S4lrj_1vBMu7qutv7-4" target="r_z-gsxkTrxiHgK6J5hU-1">
          <mxGeometry relative="1" as="geometry" />
        </mxCell>
        <mxCell id="r_z-gsxkTrxiHgK6J5hU-4" style="edgeStyle=orthogonalEdgeStyle;rounded=0;orthogonalLoop=1;jettySize=auto;html=1;exitX=1;exitY=0.75;exitDx=0;exitDy=0;entryX=0.5;entryY=0;entryDx=0;entryDy=0;endArrow=none;endFill=0;" edge="1" parent="1" source="Zu4S4lrj_1vBMu7qutv7-4" target="r_z-gsxkTrxiHgK6J5hU-2">
          <mxGeometry relative="1" as="geometry" />
        </mxCell>
        <mxCell id="Zu4S4lrj_1vBMu7qutv7-4" value="Bid" style="shape=ext;margin=3;double=1;whiteSpace=wrap;html=1;align=center;" parent="1" vertex="1">
          <mxGeometry x="537.5" y="540" width="100" height="40" as="geometry" />
        </mxCell>
        <mxCell id="Zu4S4lrj_1vBMu7qutv7-11" value="" style="edgeStyle=entityRelationEdgeStyle;fontSize=12;html=1;endArrow=ERoneToMany;startArrow=ERzeroToMany;rounded=0;entryX=1;entryY=0.5;entryDx=0;entryDy=0;exitX=0;exitY=0.5;exitDx=0;exitDy=0;" parent="1" source="PwTtp3SiCG3JIqsOgJRd-1" target="Zu4S4lrj_1vBMu7qutv7-1" edge="1">
          <mxGeometry width="100" height="100" relative="1" as="geometry">
            <mxPoint x="110" y="620" as="sourcePoint" />
            <mxPoint x="190" y="500" as="targetPoint" />
          </mxGeometry>
        </mxCell>
        <mxCell id="PwTtp3SiCG3JIqsOgJRd-2" value="" style="edgeStyle=entityRelationEdgeStyle;fontSize=12;html=1;endArrow=ERoneToMany;startArrow=ERzeroToMany;rounded=0;entryX=1;entryY=0.5;entryDx=0;entryDy=0;exitX=0;exitY=0.5;exitDx=0;exitDy=0;" parent="1" source="Zu4S4lrj_1vBMu7qutv7-4" target="PwTtp3SiCG3JIqsOgJRd-1" edge="1">
          <mxGeometry width="100" height="100" relative="1" as="geometry">
            <mxPoint x="354" y="740" as="sourcePoint" />
            <mxPoint x="200" y="920" as="targetPoint" />
          </mxGeometry>
        </mxCell>
        <mxCell id="PwTtp3SiCG3JIqsOgJRd-1" value="Submissions" style="shape=associativeEntity;whiteSpace=wrap;html=1;align=center;" parent="1" vertex="1">
          <mxGeometry x="-20" y="530" width="140" height="60" as="geometry" />
        </mxCell>
        <mxCell id="C7W32Uywa-v56HsoXyOM-2" style="edgeStyle=orthogonalEdgeStyle;rounded=0;orthogonalLoop=1;jettySize=auto;html=1;entryX=0.75;entryY=1;entryDx=0;entryDy=0;endArrow=none;endFill=0;" parent="1" source="xqxuIxr6Enimg9lBK_Os-1" target="PwTtp3SiCG3JIqsOgJRd-1" edge="1">
          <mxGeometry relative="1" as="geometry" />
        </mxCell>
        <mxCell id="xqxuIxr6Enimg9lBK_Os-1" value="block_hash" style="ellipse;whiteSpace=wrap;html=1;align=center;fontStyle=4;" parent="1" vertex="1">
          <mxGeometry x="70" y="670" width="100" height="40" as="geometry" />
        </mxCell>
        <mxCell id="C7W32Uywa-v56HsoXyOM-1" style="edgeStyle=orthogonalEdgeStyle;rounded=0;orthogonalLoop=1;jettySize=auto;html=1;entryX=0.25;entryY=1;entryDx=0;entryDy=0;endArrow=none;endFill=0;" parent="1" source="xqxuIxr6Enimg9lBK_Os-2" target="PwTtp3SiCG3JIqsOgJRd-1" edge="1">
          <mxGeometry relative="1" as="geometry" />
        </mxCell>
        <mxCell id="xqxuIxr6Enimg9lBK_Os-2" value="relay_id" style="ellipse;whiteSpace=wrap;html=1;align=center;fontStyle=4;" parent="1" vertex="1">
          <mxGeometry x="-70" y="670" width="100" height="40" as="geometry" />
        </mxCell>
        <mxCell id="C7W32Uywa-v56HsoXyOM-5" style="edgeStyle=orthogonalEdgeStyle;rounded=0;orthogonalLoop=1;jettySize=auto;html=1;entryX=0.25;entryY=0;entryDx=0;entryDy=0;endArrow=none;endFill=0;" parent="1" source="C7W32Uywa-v56HsoXyOM-3" target="PwTtp3SiCG3JIqsOgJRd-1" edge="1">
          <mxGeometry relative="1" as="geometry" />
        </mxCell>
        <mxCell id="C7W32Uywa-v56HsoXyOM-3" value="is_proposed" style="ellipse;whiteSpace=wrap;html=1;align=center;" parent="1" vertex="1">
          <mxGeometry x="-70" y="430" width="100" height="40" as="geometry" />
        </mxCell>
        <mxCell id="C7W32Uywa-v56HsoXyOM-6" style="edgeStyle=orthogonalEdgeStyle;rounded=0;orthogonalLoop=1;jettySize=auto;html=1;entryX=0.75;entryY=0;entryDx=0;entryDy=0;endArrow=none;endFill=0;exitX=0.5;exitY=1;exitDx=0;exitDy=0;" parent="1" source="C7W32Uywa-v56HsoXyOM-4" target="PwTtp3SiCG3JIqsOgJRd-1" edge="1">
          <mxGeometry relative="1" as="geometry">
            <mxPoint x="120" y="470" as="sourcePoint" />
          </mxGeometry>
        </mxCell>
        <mxCell id="C7W32Uywa-v56HsoXyOM-4" value="submitted_at" style="ellipse;whiteSpace=wrap;html=1;align=center;" parent="1" vertex="1">
          <mxGeometry x="70" y="430" width="100" height="40" as="geometry" />
        </mxCell>
        <mxCell id="C7W32Uywa-v56HsoXyOM-29" style="edgeStyle=orthogonalEdgeStyle;rounded=0;orthogonalLoop=1;jettySize=auto;html=1;entryX=0.75;entryY=0;entryDx=0;entryDy=0;endArrow=none;endFill=0;" parent="1" source="C7W32Uywa-v56HsoXyOM-13" target="Zu4S4lrj_1vBMu7qutv7-4" edge="1">
          <mxGeometry relative="1" as="geometry">
            <Array as="points">
              <mxPoint x="700" y="530" />
              <mxPoint x="612" y="530" />
            </Array>
          </mxGeometry>
        </mxCell>
        <mxCell id="C7W32Uywa-v56HsoXyOM-13" value="gas_used" style="ellipse;whiteSpace=wrap;html=1;align=center;" parent="1" vertex="1">
          <mxGeometry x="650" y="380" width="100" height="40" as="geometry" />
        </mxCell>
        <mxCell id="C7W32Uywa-v56HsoXyOM-28" style="edgeStyle=orthogonalEdgeStyle;rounded=0;orthogonalLoop=1;jettySize=auto;html=1;endArrow=none;endFill=0;entryX=0.5;entryY=0;entryDx=0;entryDy=0;" parent="1" source="C7W32Uywa-v56HsoXyOM-14" target="Zu4S4lrj_1vBMu7qutv7-4" edge="1">
          <mxGeometry relative="1" as="geometry">
            <mxPoint x="600" y="510" as="targetPoint" />
            <Array as="points" />
          </mxGeometry>
        </mxCell>
        <mxCell id="C7W32Uywa-v56HsoXyOM-14" value="gas_limit" style="ellipse;whiteSpace=wrap;html=1;align=center;" parent="1" vertex="1">
          <mxGeometry x="537.5" y="380" width="100" height="40" as="geometry" />
        </mxCell>
        <mxCell id="C7W32Uywa-v56HsoXyOM-27" style="edgeStyle=orthogonalEdgeStyle;rounded=0;orthogonalLoop=1;jettySize=auto;html=1;entryX=0.25;entryY=0;entryDx=0;entryDy=0;endArrow=none;endFill=0;" parent="1" source="C7W32Uywa-v56HsoXyOM-15" target="Zu4S4lrj_1vBMu7qutv7-4" edge="1">
          <mxGeometry relative="1" as="geometry">
            <Array as="points">
              <mxPoint x="480" y="530" />
              <mxPoint x="563" y="530" />
            </Array>
          </mxGeometry>
        </mxCell>
        <mxCell id="C7W32Uywa-v56HsoXyOM-15" value="value" style="ellipse;whiteSpace=wrap;html=1;align=center;" parent="1" vertex="1">
          <mxGeometry x="430" y="380" width="100" height="40" as="geometry" />
        </mxCell>
        <mxCell id="C7W32Uywa-v56HsoXyOM-35" style="edgeStyle=orthogonalEdgeStyle;rounded=0;orthogonalLoop=1;jettySize=auto;html=1;endArrow=none;endFill=0;entryX=0.75;entryY=1;entryDx=0;entryDy=0;" parent="1" source="C7W32Uywa-v56HsoXyOM-36" target="Zu4S4lrj_1vBMu7qutv7-4" edge="1">
          <mxGeometry relative="1" as="geometry">
            <mxPoint x="750" y="870" as="targetPoint" />
            <Array as="points">
              <mxPoint x="700" y="590" />
              <mxPoint x="613" y="590" />
            </Array>
          </mxGeometry>
        </mxCell>
        <mxCell id="C7W32Uywa-v56HsoXyOM-36" value="&lt;u&gt;block_hash&lt;/u&gt;" style="ellipse;whiteSpace=wrap;html=1;align=center;" parent="1" vertex="1">
          <mxGeometry x="650" y="690" width="100" height="40" as="geometry" />
        </mxCell>
        <mxCell id="C7W32Uywa-v56HsoXyOM-45" style="edgeStyle=orthogonalEdgeStyle;rounded=0;orthogonalLoop=1;jettySize=auto;html=1;entryX=0;entryY=0.25;entryDx=0;entryDy=0;endArrow=none;endFill=0;" parent="1" source="C7W32Uywa-v56HsoXyOM-38" target="Zu4S4lrj_1vBMu7qutv7-4" edge="1">
          <mxGeometry relative="1" as="geometry">
            <Array as="points">
              <mxPoint x="370" y="550" />
            </Array>
          </mxGeometry>
        </mxCell>
        <mxCell id="C7W32Uywa-v56HsoXyOM-38" value="fee_recipient" style="ellipse;whiteSpace=wrap;html=1;align=center;" parent="1" vertex="1">
          <mxGeometry x="320" y="380" width="100" height="40" as="geometry" />
        </mxCell>
        <mxCell id="C7W32Uywa-v56HsoXyOM-43" style="edgeStyle=orthogonalEdgeStyle;rounded=0;orthogonalLoop=1;jettySize=auto;html=1;entryX=0.5;entryY=1;entryDx=0;entryDy=0;endArrow=none;endFill=0;" parent="1" source="C7W32Uywa-v56HsoXyOM-40" target="Zu4S4lrj_1vBMu7qutv7-4" edge="1">
          <mxGeometry relative="1" as="geometry" />
        </mxCell>
        <mxCell id="C7W32Uywa-v56HsoXyOM-40" value="parent_hash" style="ellipse;whiteSpace=wrap;html=1;align=center;" parent="1" vertex="1">
          <mxGeometry x="537.5" y="690" width="100" height="40" as="geometry" />
        </mxCell>
        <mxCell id="C7W32Uywa-v56HsoXyOM-44" style="edgeStyle=orthogonalEdgeStyle;rounded=0;orthogonalLoop=1;jettySize=auto;html=1;entryX=0.25;entryY=1;entryDx=0;entryDy=0;endArrow=none;endFill=0;" parent="1" source="C7W32Uywa-v56HsoXyOM-42" target="Zu4S4lrj_1vBMu7qutv7-4" edge="1">
          <mxGeometry relative="1" as="geometry">
            <Array as="points">
              <mxPoint x="480" y="590" />
              <mxPoint x="563" y="590" />
            </Array>
          </mxGeometry>
        </mxCell>
        <mxCell id="C7W32Uywa-v56HsoXyOM-42" value="slot" style="ellipse;whiteSpace=wrap;html=1;align=center;" parent="1" vertex="1">
          <mxGeometry x="430" y="690" width="100" height="40" as="geometry" />
        </mxCell>
        <mxCell id="cx8SHJVGCa5-mkp4k21W-5" style="edgeStyle=orthogonalEdgeStyle;rounded=0;orthogonalLoop=1;jettySize=auto;html=1;entryX=0.5;entryY=0;entryDx=0;entryDy=0;endArrow=none;endFill=0;" parent="1" source="C7W32Uywa-v56HsoXyOM-46" target="PwTtp3SiCG3JIqsOgJRd-1" edge="1">
          <mxGeometry relative="1" as="geometry" />
        </mxCell>
        <mxCell id="C7W32Uywa-v56HsoXyOM-46" value="optimistic" style="ellipse;whiteSpace=wrap;html=1;align=center;" parent="1" vertex="1">
          <mxGeometry y="380" width="100" height="40" as="geometry" />
        </mxCell>
        <mxCell id="cx8SHJVGCa5-mkp4k21W-4" style="edgeStyle=orthogonalEdgeStyle;rounded=0;orthogonalLoop=1;jettySize=auto;html=1;entryX=0.25;entryY=0;entryDx=0;entryDy=0;" parent="1" source="cx8SHJVGCa5-mkp4k21W-1" target="Zu4S4lrj_1vBMu7qutv7-1" edge="1">
          <mxGeometry relative="1" as="geometry" />
        </mxCell>
        <mxCell id="cx8SHJVGCa5-mkp4k21W-1" value="relay_id" style="ellipse;whiteSpace=wrap;html=1;align=center;fontStyle=4;" parent="1" vertex="1">
          <mxGeometry x="-450" y="420" width="100" height="40" as="geometry" />
        </mxCell>
        <mxCell id="cx8SHJVGCa5-mkp4k21W-3" style="edgeStyle=orthogonalEdgeStyle;rounded=0;orthogonalLoop=1;jettySize=auto;html=1;entryX=0.75;entryY=0;entryDx=0;entryDy=0;" parent="1" source="cx8SHJVGCa5-mkp4k21W-2" target="Zu4S4lrj_1vBMu7qutv7-1" edge="1">
          <mxGeometry relative="1" as="geometry" />
        </mxCell>
        <mxCell id="cx8SHJVGCa5-mkp4k21W-2" value="url" style="ellipse;whiteSpace=wrap;html=1;align=center;" parent="1" vertex="1">
          <mxGeometry x="-300" y="420" width="100" height="40" as="geometry" />
        </mxCell>
        <mxCell id="cx8SHJVGCa5-mkp4k21W-7" style="edgeStyle=orthogonalEdgeStyle;rounded=0;orthogonalLoop=1;jettySize=auto;html=1;entryX=0;entryY=0.75;entryDx=0;entryDy=0;endArrow=none;endFill=0;" parent="1" source="cx8SHJVGCa5-mkp4k21W-6" target="Zu4S4lrj_1vBMu7qutv7-4" edge="1">
          <mxGeometry relative="1" as="geometry">
            <Array as="points">
              <mxPoint x="370" y="570" />
            </Array>
          </mxGeometry>
        </mxCell>
        <mxCell id="cx8SHJVGCa5-mkp4k21W-6" value="num_tx" style="ellipse;whiteSpace=wrap;html=1;align=center;" parent="1" vertex="1">
          <mxGeometry x="320" y="690" width="100" height="40" as="geometry" />
        </mxCell>
        <mxCell id="r_z-gsxkTrxiHgK6J5hU-1" value="proposer" style="ellipse;whiteSpace=wrap;html=1;align=center;" vertex="1" parent="1">
          <mxGeometry x="760" y="380" width="100" height="40" as="geometry" />
        </mxCell>
        <mxCell id="r_z-gsxkTrxiHgK6J5hU-2" value="builder" style="ellipse;whiteSpace=wrap;html=1;align=center;" vertex="1" parent="1">
          <mxGeometry x="760" y="690" width="100" height="40" as="geometry" />
        </mxCell>
      </root>
    </mxGraphModel>
  </diagram>
</mxfile>
